<?xml version="1.0" encoding="UTF-8"?>
<svg id="Ebene_1" data-name="Ebene 1" xmlns="http://www.w3.org/2000/svg" viewBox="0 0 161.2664 95.2351">
    <defs>
        <style>
            .cls-1 {
            stroke-miterlimit: 10;
            stroke-width: 1px;
            }

            .cls-1, .cls-2 {
            fill: #fff;
            }

            .cls-1, .cls-2, .cls-3 {
            stroke: #fff;
            }

            .cls-2, .cls-3 {
            stroke-miterlimit: 10;
            }

            .cls-3 {
            fill: none;
            stroke-width: 4px;
            }

            .cls-4 {
            fill: #424242;
            }
        </style>
    </defs>
    <g id="Ebene_1-2" data-name="Ebene 1">
        <path class="cls-3" d="m138.2364,49.015c1.5233-3.8911,2.3687-8.1221,2.3687-12.553,0-19.0328-15.4291-34.462-34.462-34.462-13.562,0-25.2886,7.8372-30.9128,19.2267-4.0991-4.9473-10.4447-8.1265-17.5737-8.1265-12.3619,0-22.3832,9.5481-22.3832,21.3263,0,.9061.0662,1.7971.1813,2.6735-1.879-.4146-3.827-.638-5.8265-.638-15.2587,0-27.6282,12.7091-27.6282,28.3865s12.3695,28.3866,27.6282,28.3866c1.0723,0,2.1284-.0693,3.1689-.1915h101.5757v-.2582c.7413.0711,1.4926.1088,2.2531.1088,12.504,0,22.6405-9.8365,22.6405-21.9703,0-11.6078-9.2785-21.1066-21.03-21.909Z"/>
        <rect class="cls-1" x="49.9798" y="25.2145" width="80.2761" height="7.6504"/>
        <path class="cls-2" d="m71.015,37.7219l5.6318,21.6475c1.2319,4.752,2.376,9.1519,3.168,13.5518h.2637c.9683-4.312,2.376-8.8877,3.7842-13.4639l6.9517-21.7354h6.5117l6.5996,21.2954c1.584,5.104,2.8159,9.5918,3.7842,13.9038h.2642c.7036-4.312,1.8477-8.7998,3.2559-13.8159l6.0718-21.3833h7.6558l-13.7275,42.5908h-7.04l-6.5117-20.3276c-1.4961-4.7515-2.728-8.9756-3.7842-13.9912h-.1758c-1.0562,5.1035-2.376,9.5034-3.8721,14.0796l-6.8638,20.2393h-7.0396l-12.8477-42.5908s7.9199,0,7.9199,0Z"/>
        <path class="cls-4" d="m24.7298,40.1611c-.0645-.8773-.0387-1.7542.075-2.6264l-.0893.6646c.1517-1.0897.4385-2.15.86-3.1663l-.252.5972c.0283-.0674.0572-.1346.0868-.2015.2787-.6394.4453-1.2247.252-1.9264-.1597-.5799-.6081-1.2083-1.1489-1.4941-.5802-.3065-1.2831-.4602-1.9264-.252-.5771.1868-1.2405.5671-1.4941,1.1489-.4996,1.1461-.922,2.2953-1.1327,3.5313-.2104,1.2346-.3224,2.4742-.2304,3.7247.0492.6696.2456,1.2811.7322,1.7678.4336.4336,1.145.7601,1.7678.7322.6466-.029,1.3171-.2413,1.7678-.7322.4298-.4682.7806-1.1103.7322-1.7678h0Z"/>
        <path class="cls-4" d="m21.0045,33.942c-.0767,1.2426.2495,2.4578.6258,3.6287.3118.9703.8302,1.9056.9894,2.9173l-.0893-.6646c.028.2341.032.4606.007.6954h5c-.2605-2.0338-.3903-4.081-.3887-6.1314.001-1.3077-1.1506-2.5604-2.5-2.5-1.3554.0607-2.4989,1.0984-2.5,2.5-.0016,2.0504.1282,4.0976.3887,6.1314.0882.6888.2206,1.2562.7322,1.7678.4336.4336,1.145.7601,1.7678.7322.6466-.029,1.3171-.2413,1.7678-.7322l.3909-.506c.2261-.3899.3399-.8105.3413-1.2618.1258-1.1807-.3367-2.2569-.7531-3.3247-.3516-.9017-.6793-1.8629-.8267-2.8213l.0893.6646c-.0484-.3651-.0651-.7278-.0424-1.0955.038-.6158-.306-1.3415-.7322-1.7678-.4336-.4336-1.145-.7601-1.7678-.7322-1.4235.0638-2.4135,1.0991-2.5,2.5h0Z"/>
        <path class="cls-4" d="m17.3587,42.9505c-.8468-.9738-1.8784-1.6802-2.8987-2.4548l.506.3909c-.3101-.2527-.5766-.5415-.8256-.8537l.3909.506c-.2081-.2696-.4268-.5419-.5782-.8482l.252.5972c-.0322-.0714-.0524-.146-.0608-.2239l.0893.6646.0028-.1118-.0893.6646.0314-.1096-.252.5972.0456-.0795-.3909.506.0594-.0665-.506.3909c.0455-.0408.0961-.074.1517-.0993l-.5972.252c.1228-.0495.2431-.0786.3736-.1002l-.6646.0893c.1399-.0179.2758-.0305.417-.0266l-.6646-.0893c.0709.0051.1388.0222.2036.0515l-.5972-.252.0895.0535-.506-.3909c.2237.1897.3976.4426.5772.6726l-.3909-.506c.6468.84,1.3028,1.7289,1.735,2.702l-.252-.5972c.1214.2968.2089.5907.2575.9079l-.0893-.6646c.0239.2275.0252.4454-.0002.6725l.0893-.6646c-.0289.1663-.0678.3232-.1297.4804l.252-.5972c-.0256.0593-.0568.1155-.0935.1686l.3909-.506c-.0356.0518-.0781.0971-.1274.136l.506-.3909-.0774.0483.5972-.252-.087.0311.6646-.0893c-.0813.0162-.1623.0145-.2428-.0052l.6646.0893c-.1229-.033-.2385-.0719-.3575-.1173l.5972.252c-.562-.2397-1.0511-.5998-1.5474-.9505-.5481-.3873-1.0963-.7747-1.6444-1.162-1.1166-.789-2.2331-1.578-3.3497-2.3671-.5031-.3555-1.3539-.4097-1.9264-.252-.5799.1597-1.2083.6081-1.4941,1.1489-.3065.5802-.4602,1.2831-.252,1.9264.2102.6496.5916,1.1003,1.1489,1.4941,1.4414,1.0186,2.8828,2.0371,4.3242,3.0557.643.4544,1.2763.9747,1.9871,1.3209.6582.3206,1.293.5589,2.0318.5723,1.0428.0189,2.0111-.6266,2.5364-1.4999,1.2702-2.1116.2055-4.5522-1.0375-6.3741-.5752-.8431-1.1663-1.7869-1.9782-2.4142-1.1015-.851-2.8519-.843-4.0119-.0742-1.1087.7348-1.5845,2.0126-1.2672,3.3031.147.598.5055,1.0816.87,1.5569.36.4694.7098.9367,1.1652,1.3179.4787.4007,1.0027.7314,1.4964,1.1106l-.506-.3909c.5284.4172,1.0118.8779,1.4535,1.3859.8611.9902,2.6656.9477,3.5355,0,.9687-1.0552.9185-2.4794,0-3.5355h0Z"/>
        <path class="cls-4" d="m27.8906,38.9624c-.0645-.8773-.0387-1.7542.075-2.6264l-.0893.6646c.1517-1.0897.4385-2.15.86-3.1663l-.252.5972c.0283-.0674.0572-.1346.0868-.2015.2787-.6394.4453-1.2247.252-1.9264-.1597-.5799-.6081-1.2083-1.1489-1.4941-.5802-.3065-1.2831-.4602-1.9264-.252-.5771.1868-1.2405.5671-1.4941,1.1489-.4996,1.1461-.922,2.2953-1.1327,3.5313-.2104,1.2346-.3224,2.4742-.2304,3.7247.0492.6696.2456,1.2811.7322,1.7678.4336.4336,1.145.7601,1.7678.7322.6466-.029,1.3171-.2413,1.7678-.7322.4298-.4682.7806-1.1103.7322-1.7678h0Z"/>
        <path class="cls-4" d="m24.1653,32.7432c-.0767,1.2426.2495,2.4578.6258,3.6287.3118.9703.8302,1.9056.9894,2.9173l-.0893-.6646c.028.2341.032.4606.007.6954h5c-.2605-2.0338-.3903-4.081-.3887-6.1314.001-1.3077-1.1506-2.5604-2.5-2.5-1.3554.0607-2.4989,1.0984-2.5,2.5-.0016,2.0504.1282,4.0976.3887,6.1314.0882.6888.2206,1.2562.7322,1.7678.4336.4336,1.145.7601,1.7678.7322.6466-.029,1.3171-.2413,1.7678-.7322l.3909-.506c.2261-.3899.3399-.8105.3413-1.2618.1258-1.1807-.3367-2.2569-.7531-3.3247-.3516-.9017-.6793-1.8629-.8267-2.8213l.0893.6646c-.0484-.3651-.0651-.7278-.0424-1.0955.038-.6158-.306-1.3415-.7322-1.7678-.4336-.4336-1.145-.7601-1.7678-.7322-1.4235.0638-2.4135,1.0991-2.5,2.5h0Z"/>
        <path class="cls-4" d="m20.5195,41.7517c-.8468-.9738-1.8784-1.6802-2.8987-2.4548l.506.3909c-.3101-.2527-.5766-.5415-.8256-.8537l.3909.506c-.2081-.2696-.4268-.5419-.5782-.8482l.252.5972c-.0322-.0714-.0524-.146-.0608-.2239l.0893.6646.0028-.1118-.0893.6646.0314-.1096-.252.5972.0456-.0795-.3909.506.0594-.0665-.506.3909c.0455-.0408.0961-.074.1517-.0993l-.5972.252c.1228-.0495.2431-.0786.3736-.1002l-.6646.0893c.1399-.0179.2758-.0305.417-.0266l-.6646-.0893c.0709.0051.1388.0222.2036.0515l-.5972-.252.0895.0535-.506-.3909c.2237.1897.3976.4426.5772.6726l-.3909-.506c.6468.84,1.3028,1.7289,1.735,2.702l-.252-.5972c.1214.2968.2089.5907.2575.9079l-.0893-.6646c.0239.2275.0252.4454-.0002.6725l.0893-.6646c-.0289.1663-.0678.3232-.1297.4804l.252-.5972c-.0256.0593-.0568.1155-.0935.1686l.3909-.506c-.0356.0518-.0781.0971-.1274.136l.506-.3909-.0774.0483.5972-.252-.087.0311.6646-.0893c-.0813.0162-.1623.0145-.2428-.0052l.6646.0893c-.1229-.033-.2385-.0719-.3575-.1173l.5972.252c-.562-.2397-1.0511-.5998-1.5474-.9505-.5481-.3873-1.0963-.7747-1.6444-1.162-1.1166-.789-2.2331-1.578-3.3497-2.3671-.5031-.3555-1.3539-.4097-1.9264-.252-.5799.1597-1.2083.6081-1.4941,1.1489-.3065.5802-.4602,1.2831-.252,1.9264.2102.6496.5916,1.1003,1.1489,1.4941,1.4414,1.0186,2.8828,2.0371,4.3242,3.0557.643.4544,1.2763.9747,1.9871,1.3209.6582.3206,1.293.5589,2.0318.5723,1.0428.0189,2.0111-.6266,2.5364-1.4999,1.2702-2.1116.2055-4.5522-1.0375-6.3741-.5752-.8431-1.1663-1.7869-1.9782-2.4142-1.1015-.851-2.8519-.843-4.0119-.0742-1.1087.7348-1.5845,2.0126-1.2672,3.3031.147.598.5055,1.0816.87,1.5569.36.4694.7098.9367,1.1652,1.3179.4787.4007,1.0027.7314,1.4964,1.1106l-.506-.3909c.5284.4172,1.0118.8779,1.4535,1.3859.8611.9902,2.6656.9477,3.5355,0,.9687-1.0552.9185-2.4794,0-3.5355h0Z"/>
    </g>
    <g id="Ebene_2" data-name="Ebene 2">
        <path class="cls-2" d="m21.7592,25.216v35.1108c0,13.2876,5.8955,18.9194,13.8154,18.9194,8.7998,0,14.4316-5.8081,14.4316-18.9194V25.216h7.7437v34.583c0,18.2153-9.5918,25.6948-22.4395,25.6948-12.1436,0-21.2954-6.9517-21.2954-25.3433V25.216h7.7441Z"/>
    </g>
</svg>