<?xml version="1.0" encoding="UTF-8"?>
<svg id="Ebene_1" data-name="Ebene 1" xmlns="http://www.w3.org/2000/svg" viewBox="0 0 350.7878 177.1969">
  <defs>
    <style>
      .cls-1 {
        fill: none;
        stroke: #fff;
        stroke-miterlimit: 10;
        stroke-width: 2px;
      }
    </style>
  </defs>
  <line class="cls-1" x1="162.4155" y1="2.8306" x2="350.5611" y2="1"/>
  <line class="cls-1" x1=".8603" y1="109.4735" x2="162.8839" y2="13.8153"/>
  <line class="cls-1" x1="1.1077" y1="120.6328" x2="163.1313" y2="24.9746"/>
  <line class="cls-1" x1=".8788" y1="98.3528" x2="162.9024" y2="2.6946"/>
  <line class="cls-1" x1="162.4155" y1="13.977" x2="350.5611" y2="12.1464"/>
  <line class="cls-1" x1="162.6324" y1="25.1235" x2="350.778" y2="23.2929"/>
  <line class="cls-1" x1="162.6324" y1="36.27" x2="350.778" y2="34.4394"/>
  <line class="cls-1" x1="162.0796" y1="47.4164" x2="350.2253" y2="45.5858"/>
  <line class="cls-1" x1="162.0796" y1="58.5629" x2="350.2253" y2="56.7323"/>
  <line class="cls-1" x1="162.2966" y1="69.7094" x2="350.4422" y2="67.8788"/>
  <line class="cls-1" x1="162.2966" y1="80.8559" x2="350.4422" y2="79.0252"/>
  <line class="cls-1" x1="1.079" y1="131.7735" x2="163.1026" y2="36.1153"/>
  <line class="cls-1" x1=".5084" y1="154.0358" x2="162.532" y2="58.3776"/>
  <line class="cls-1" x1=".7558" y1="165.1952" x2="162.7794" y2="69.537"/>
  <line class="cls-1" x1=".5269" y1="142.9151" x2="162.5504" y2="47.2569"/>
  <line class="cls-1" x1=".7271" y1="176.3358" x2="162.7507" y2="80.6776"/>
</svg>