<?xml version="1.0" encoding="UTF-8"?>
<svg xmlns="http://www.w3.org/2000/svg" viewBox="0 0 189.8085106383 118.8194190492">
  <defs>
    <style>
      .cls-1 {
        fill: #fff;
      }

      .cls-2 {
        fill: none;
        stroke: #1d1d1b;
        stroke-miterlimit: 10;
        stroke-width: 4px;
      }

      .cls-3 {
        fill: #1d1d1b;
      }
    </style>
  </defs>
  <g id="Ebene_1" data-name="Ebene 1">
    <path class="cls-2" d="m150.6614301966,61.3083106508c1.5232543945-3.8911132812,2.3686523438-8.1220703125,2.3686523438-12.5529785156,0-19.0328369141-15.4291381836-34.4619750977-34.4619750977-34.4619750977-13.5619506836,0-25.2886352539,7.8372192383-30.9127807617,19.2267456055-4.0990600586-4.947265625-10.4447021484-8.1265258789-17.5736694336-8.1265258789-12.3619384766,0-22.3832397461,9.5480957031-22.3832397461,21.3262939453,0,.9061279297.0662231445,1.7970581055.1813354492,2.6734619141-1.8789672852-.4145507812-3.8270263672-.6380004883-5.8265380859-.6380004883-15.2586669922,0-27.6281738281,12.7091064453-27.6281738281,28.3865356445,0,15.6774902344,12.3695068359,28.3865966797,27.6281738281,28.3865966797,1.0723266602,0,2.1284179688-.0693359375,3.1688842773-.1914672852h101.5757446289v-.2581787109c.7412719727.071105957,1.4926147461.1088256836,2.253112793.1088256836,12.5040283203,0,22.6405029297-9.8364868164,22.6405029297-21.9703369141,0-11.6078491211-9.278503418-21.106628418-21.0300292969-21.908996582Z"/>
    <rect class="cls-3" x="98.717697056" y="1.1950317522" width="7.650390625" height="80.2760914033" transform="translate(61.2098766362 143.8759947011) rotate(-90.0000344869)"/>
    <path class="cls-3" d="m83.4400556848,50.0152198305l5.6318359375,21.6474609375c1.2319335938,4.751953125,2.3759765625,9.1518554688,3.16796875,13.5517578125h.263671875c.9682617188-4.3120117188,2.3759765625-8.8876953125,3.7841796875-13.4638671875l6.9516601562-21.7353515625h6.51171875l6.599609375,21.2954101562c1.583984375,5.1040039062,2.8159179688,9.591796875,3.7841796875,13.9038085938h.2641601562c.7036132812-4.3120117188,1.84765625-8.7998046875,3.255859375-13.8159179688l6.0717773438-21.3833007812h7.6557617188l-13.7275390625,42.5908203125h-7.0400390625l-6.51171875-20.3276367188c-1.49609375-4.7514648438-2.7280273438-8.9755859375-3.7841796875-13.9912109375h-.17578125c-1.0561523438,5.103515625-2.3759765625,9.5034179688-3.8720703125,14.0795898438l-6.8637695312,20.2392578125h-7.0395507812l-12.84765625-42.5908203125h7.919921875Z"/>
    <path class="cls-1" d="m37.1548737418,52.454492141c-.0645174713-.877294233-.0386825663-1.7541734887.0749726184-2.6264133604l-.0893024161.6645990305c.1516742263-1.0896922485.4385014907-2.1499536847.8600407494-3.1663016695l-.252020871.5971988397c.0283179094-.0674229168.057238189-.134586456.0867608388-.2014906178.2787434927-.6394358783.4452564134-1.2246890792.252020871-1.9263969007-.1596915859-.5798976394-.6080720572-1.2083337691-1.1488997137-1.4940776823-.5802001291-.306546186-1.2830756885-.4602084555-1.9263969007-.252020871-.5771143271.1867621267-1.2404507062.5670809718-1.4940776823,1.1488997137-.4996242619,1.1461350204-.9219762582,2.2953278229-1.1326560859,3.5312742825-.2104468893,1.2345799338-.3224057317,2.4742188007-.2304414078,3.7247292354.0492418478.6695797003.2455679151,1.281101821.732233047,1.767766953.4336056951.4336056951,1.1450156372.7601261548,1.767766953.732233047.6465593265-.0289594715,1.3171395193-.2413436579,1.767766953-.732233047.4297550456-.4681521276.7805807388-1.1103457878.732233047-1.767766953h0Z"/>
    <path class="cls-1" d="m33.4295066586,46.2353820352c-.0767015966,1.2426071213.2494583584,2.4577713105.6257630065,3.6287333757.3118058344.9702585541.8301673138,1.905614021.9894135861,2.9173119587l-.0893024161-.6645990305c.0279896713.2341344293.0320293657.4606426815.0070207397.6954214934h5c-.2605342086-2.0337860947-.3903133981-4.0810025304-.3886886028-6.1314076849.0010362766-1.3077258598-1.1506277675-2.5604385477-2.5-2.5-1.3553924301.0607081931-2.4988893668,1.0984400814-2.5,2.5-.0016247953,2.0504051544.1281543942,4.0976215901.3886886028,6.1314076849.0882408003.6888266749.2206371889,1.2561710948.732233047,1.767766953.4336056951.4336056951,1.1450156372.7601261548,1.767766953.732233047.6465593265-.0289594715,1.3171395193-.2413436579,1.767766953-.732233047l.3909097599-.5059690828c.2261462477-.389928446.3399206767-.810527736.3413232871-1.2617978702.1257688565-1.1807071177-.3367189783-2.2568503552-.7531192399-3.3246517727-.3516381691-.9017279046-.6792700219-1.8629160762-.8266587993-2.8212673788l.0893024161.6645990305c-.0484092919-.3651297932-.0651160243-.7278484247-.0424192932-1.0955476764.0380083611-.6157558938-.3059511526-1.3414850586-.732233047-1.767766953-.4336056951-.4336056951-1.1450156372-.7601261548-1.767766953-.732233047-1.4235255339.0637598832-2.4135264859,1.0990825585-2.5,2.5h0Z"/>
    <path class="cls-1" d="m29.783697601,55.2438568686c-.8468194265-.9737640603-1.8784101188-1.6801624949-2.8986876336-2.4547638584l.5059690828.3909097599c-.3101049475-.2527135724-.5765996695-.5414894592-.8255514105-.8537252812l.3909097599.5059690828c-.2080848916-.2696424469-.4267774281-.541868134-.5781789583-.8482153996l.252020871.5971988397c-.0321561777-.0714124853-.0524095574-.1460376162-.0607601393-.2238753926l.0893024161.6645990305.0028339586-.1117739357-.0893024161.6645990305.0314414113-.1096341802-.252020871.5971988397.045553644-.0795120637-.3909097599.5059690828.0594286672-.0665285381-.5059690828.3909097599c.0454972609-.0408465714.0960712178-.0739542166.1517218708-.0993229355l-.5971988397.252020871c.1228232672-.0494610354.2431027451-.0786142979.3735781549-.1002243603l-.6645990305.0893024161c.1398835548-.017860233.2758291688-.0305497717.416957578-.0266466467l-.6645990305-.0893024161c.0709148558.0050635809.138774032.0222165567.2035775286.0514589273l-.5971988397-.252020871.0895321633.0534737803-.5059690828-.3909097599c.2237159314.1896726727.3975920442.4426183111.5771626189.6725899603l-.3909097599-.5059690828c.6467536416.839966722,1.3027910178,1.7289359028,1.7350329226,2.7019837677l-.252020871-.5971988397c.121377961.2967854086.2089470305.5906671278.2574938601.9079330171l-.0893024161-.6645990305c.0238555817.2275290662.0251562363.4454050028-.0001560122.6725413828l.0893024161-.6645990305c-.0289037776.1662777431-.0678221548.3231566046-.1296626183.4804023748l.252020871-.5971988397c-.0255949605.0592980702-.0567692657.1155003103-.0935229156.16860672l.3909097599-.5059690828c-.0356215702.0517637639-.0780938118.0970985855-.127416725.1360044649l.5059690828-.3909097599-.0773735307.0482598988.5971988397-.252020871-.0869929707.0310895495.6645990305-.0893024161c-.0813210032.0162090978-.1622651707.0144623396-.2428325025-.0052402746l.6645990305.0893024161c-.1229425657-.0330223386-.2385314163-.0718766906-.3574698132-.1172611619l.5971988397.252020871c-.5620421934-.2396633215-1.0511453671-.5998368988-1.5474085514-.9505216862-.5481333421-.387338877-1.0962666862-.7746777511-1.6444000317-1.1620166233-1.1165679255-.789023628-2.2331358567-1.5780472479-3.349703788-2.3670708678-.5031437798-.3555469536-1.3538833584-.4096790322-1.9263969007-.252020871-.5798976394.1596915859-1.2083337691.6080720572-1.4940776823,1.1488997137-.306546186.5802001291-.4602084555,1.2830756885-.252020871,1.9263969007.2102165299.6495908638.5916000571,1.1002614352,1.1488997137,1.4940776823,1.4413876932,1.018557764,2.8827753864,2.0371155279,4.3241630672,3.0556733094.6429714397.4543562928,1.2763485716.9746556482,1.987077554,1.3208988894.658191147.320648576,1.2930141225.5589150006,2.0318469335.5722918883,1.0428228016.0188807581,2.0110799383-.6265861265,2.5363885346-1.4998519171,1.2702108858-2.1115811184.2055090924-4.5522355063-1.0374884524-6.3740581869-.5752496961-.8431255136-1.1663367389-1.7869436218-1.9781572975-2.4141530512-1.1015027011-.8510167341-2.8519316683-.8429785789-4.0119475773-.0741936451-1.1086869267.7347673414-1.5844731457,2.0125983377-1.2672324761,3.303115216.1469928926.5979586701.5054597739,1.0815970683.8700350499,1.556898877.3600451908.4693958741.7097762622.9366919992,1.1651863183,1.3179089905.4786689593.4006866736,1.0027167183.7314369722,1.496420587,1.1106297533l-.5059690828-.3909097599c.5284051271.417176169,1.0117541066.8779043566,1.4535418987,1.3859194786.8610781553.9901602804,2.6656073616.9476513813,3.5355339059,0,.9686773973-1.0552252711.9184719014-2.4793761231,0-3.5355339059h0Z"/>
  </g>
  <g id="Ebene_2" data-name="Ebene 2">
    <path class="cls-3" d="m34.1841963098,37.5093604555v35.1108398438c0,13.2875976562,5.8955078125,18.9194335938,13.8154296875,18.9194335938,8.7998046875,0,14.431640625-5.8081054688,14.431640625-18.9194335938v-35.1108398438h7.7436523438v34.5830078125c0,18.2153320312-9.591796875,25.6948242188-22.439453125,25.6948242188-12.1435546875,0-21.2954101562-6.9516601562-21.2954101562-25.3432617188v-34.9345703125h7.744140625Z"/>
  </g>
</svg>