<?xml version="1.0" encoding="UTF-8"?>
<svg id="Ebene_1" data-name="Ebene 1" xmlns="http://www.w3.org/2000/svg" viewBox="0 0 350.758 177.217">
  <defs>
    <style>
      .cls-1 {
        fill: none;
        stroke: #fff;
        stroke-miterlimit: 10;
        stroke-width: 2px;
      }
    </style>
  </defs>
  <line class="cls-1" x1=".3456" y1="98.1918" x2="188.4912" y2="96.3612"/>
  <line class="cls-1" x1="187.9786" y1="107.6401" x2="350.0022" y2="11.9819"/>
  <line class="cls-1" x1="188.226" y1="118.7994" x2="350.2496" y2="23.1412"/>
  <line class="cls-1" x1="187.9971" y1="96.5193" x2="350.0207" y2=".8611"/>
  <line class="cls-1" x1=".3456" y1="109.3383" x2="188.4912" y2="107.5077"/>
  <line class="cls-1" x1=".5625" y1="120.4847" x2="188.7081" y2="118.6541"/>
  <line class="cls-1" x1=".5625" y1="131.6312" x2="188.7081" y2="129.8006"/>
  <line class="cls-1" x1=".0097" y1="142.7777" x2="188.1554" y2="140.9471"/>
  <line class="cls-1" x1=".0097" y1="153.9242" x2="188.1554" y2="152.0935"/>
  <line class="cls-1" x1=".2266" y1="165.0706" x2="188.3723" y2="163.24"/>
  <line class="cls-1" x1=".2266" y1="176.2171" x2="188.3723" y2="174.3865"/>
  <line class="cls-1" x1="188.1973" y1="129.9401" x2="350.2209" y2="34.2818"/>
  <line class="cls-1" x1="187.6267" y1="152.2024" x2="349.6503" y2="56.5442"/>
  <line class="cls-1" x1="187.8741" y1="163.3617" x2="349.8977" y2="67.7035"/>
  <line class="cls-1" x1="187.6452" y1="141.0817" x2="349.6688" y2="45.4234"/>
  <line class="cls-1" x1="187.8454" y1="174.5024" x2="349.869" y2="78.8442"/>
</svg>